<svg id="Layer_1" data-name="Layer 1" xmlns="http://www.w3.org/2000/svg" viewBox="0 0 832.24 159.72"><defs><style>.cls-1{fill:#fff;}.cls-2{opacity:0.75;}</style></defs><title>major_Artboard 2</title><path class="cls-1" d="M26,119.22a1.93,1.93,0,1,0,2.53,2.9,2,2,0,0,0,.32-2.8A2,2,0,0,0,26,119.22Z"/><path class="cls-1" d="M107.52,143.08a1.89,1.89,0,0,0,.83-2.51,1.86,1.86,0,0,0-2.46-.88,1.83,1.83,0,0,0-.82,2.47A1.87,1.87,0,0,0,107.52,143.08Z"/><path class="cls-1" d="M79.83,0a79.86,79.86,0,1,0,79.86,79.85A79.93,79.93,0,0,0,79.83,0ZM145.4,45.34l.48-.25L148,49.35l-.49.2c-.38-.81-.57-1.1-1.25-.79,0,0-7.25,3.58-8.06,4s-.3,1.15.06,1.84l-.48.2-2.26-4.58L136,50c.42.81.6,1.15,1.26.82l8.06-4C146.15,46.4,145.4,45.34,145.4,45.34Zm-9.9-3.87.07-.87c.13-2,.65-3.19,1.74-3.94,1.44-1,3.27-.45,4.49,1.29a4.19,4.19,0,0,1,.94,2.18l-2.06,1.42-.36-.56a1.78,1.78,0,0,0,.86-1,1.75,1.75,0,0,0-.28-1.64,1.45,1.45,0,0,0-2.08-.57c-.48.33-.75.79-.84,2.43l0,.52c-.14,2.35-.61,3.46-1.82,4.3a3.15,3.15,0,0,1-3.07.31,4.24,4.24,0,0,1-1.9-1.68,4.2,4.2,0,0,1-.94-2.52l2.38-1.62.33.51a9.29,9.29,0,0,0-.8.82,1.9,1.9,0,0,0,0,2.43,1.66,1.66,0,0,0,2.34.65C135,43.51,135.42,43,135.5,41.47Zm-6.34-17.83,3.17,3.16a4.9,4.9,0,0,1,1.54,2.45,2.57,2.57,0,0,1-.74,2.25c-.87.9-2,1.2-3.75,1l-.08.75a41.63,41.63,0,0,0-.36,4.26,3,3,0,0,0,.44,1.83l.25.33-.35.35L128.2,39a3.46,3.46,0,0,1-1-1.41,7.29,7.29,0,0,1,.1-3.07l.42-2.57-1-1-2.4,2.42c-.63.66.1,1.19.61,1.72l-.35.37L121,31.91l.4-.41c.66.65.94.9,1.47.37l6.32-6.37c.68-.69-.38-1.47-.38-1.47Zm-11.09-7.79L124.27,20,123,22l-.45-.31c.43-.65.71-1.11-.14-1.7-.37-.26-1.81-1.2-1.81-1.2L118.39,22l1.84,1.22c.62.43.78.26,1.22-.42l.45.3-1.74,2.6-.46-.31c.46-.63.58-.87,0-1.3l-1.84-1.24h0l-2.56,3.86,2,1.3c.63.44,1.23.35,1.87-.57l.45.29-1.44,2.12-6.3-4.22.31-.5c.73.5,1,.79,1.69-.22l4.63-7c.61-.88-.25-1.37-.69-1.66Zm-14.43-7,4,1.77-.23.5-.4-.18a.32.32,0,0,0-.37,0c-.11.11-.09.32-.11.41L106.47,13c-.08,1.8-.28,5.94-.29,6.25l2.08-2.06,3.2-3.24a2.25,2.25,0,0,0,.44-.65c0-.12-.08-.25-.21-.32l-.39-.17.21-.52L115,13.78l-.13.56-.38-.19a1.54,1.54,0,0,0-1.46.33l-2.18,2-6.13,5.67-.45-.24.16-10.76a2.49,2.49,0,0,0-.2-1.26,2.25,2.25,0,0,0-.76-.52ZM92.4,17.48c.9.19,1.28.25,1.46-.47,0,0,1.91-8.3,2-8.73.21-.94-1.1-1.07-1.1-1.07l.14-.51,4.61,1.07-.12.54c-.9-.23-1.26-.3-1.42.45,0,0-1.82,7.87-2,8.72s.69,1,1.43,1.16l-.12.5L92.3,18ZM75.95,16c.68,0,1.36.15,1.43-1.12S78,5,78,5l.71.06,7.51,8.75s.33-5.42.39-6.62S85.76,6.06,85.18,6l0-.53,3.95.24,0,.56c-.63,0-1.22-.15-1.3,1s-.58,9.89-.58,9.89l-.78,0L79,8.57l-.38,6.35c-.09,1.35.88,1.28,1.64,1.3l0,.56-4.29-.24ZM64,6.88l.11.53c-.92.18-1.25.28-1.11,1l1,5.08c.45,2.34,1.15,3,1.81,3.32a2.68,2.68,0,0,0,1.89.24,2.91,2.91,0,0,0,1.81-1.16c.6-.93.4-2.18.1-3.75,0,0-1-4.69-1-4.86-.18-1-1.44-.51-1.44-.51l-.11-.52,4-.8.11.53c-.91.17-1.25.25-1.11,1l.92,4.6c.35,1.72.53,3.48-.54,4.84a4.74,4.74,0,0,1-2.9,1.71,5.21,5.21,0,0,1-3.57-.39c-1.08-.63-1.77-1.81-2.14-3.71,0,0-1-5-1-5.21-.19-.93-1.44-.49-1.44-.49l-.1-.52ZM47.27,12.67l.26.48c-.82.42-1.13.6-.8,1.27,0,0,3.7,7.21,4.11,8s1.12.3,1.8-.06l.25.48-4.53,2.3-.24-.44c.79-.41,1.15-.65.79-1.29,0,0-3.88-7.56-4.09-8-.45-.83-1.51-.08-1.51-.08l-.25-.48ZM38,17.73l1.41,1.92L39,20c-.44-.64-.83-1-1.64-.44l-1.74,1.29,2.3,3.12,1.79-1.35c.61-.43.46-.67,0-1.29l.44-.31L42,23.47l-.41.31c-.47-.64-.65-.81-1.27-.35l-1.76,1.33h0l2.74,3.71S42.8,27.34,43.21,27c.61-.45.73-1.05.07-2l.43-.31,1.55,2.06-6.09,4.56-.35-.48c.7-.5,1.07-.67.33-1.68,0,0-4.34-5.78-5-6.68s-1.39-.19-1.79.1L32,22.2ZM26,27.82C27.26,26.49,28,26.41,28,26.41l1.8,1.73-.45.45A1.71,1.71,0,0,0,28.13,28a1.74,1.74,0,0,0-1.55.61,1.46,1.46,0,0,0-.11,2.18c.43.39.92.54,2.55.29a4.4,4.4,0,0,0,.51-.09c2.31-.36,3.52-.11,4.58.9A3.18,3.18,0,0,1,35,34.83,4.18,4.18,0,0,1,33.81,37a4.29,4.29,0,0,1-2.26,1.45l-2.07-2,.4-.42s.71.5,1,.61a1.9,1.9,0,0,0,2.4-.46,1.72,1.72,0,0,0,.18-2.45,2.83,2.83,0,0,0-2.65-.54l-.85.12c-2,.28-3.25,0-4.21-.88C24.42,31.27,24.53,29.35,26,27.82Zm-12.1,16.6,11.27-2.5s-4.63-2.85-5.65-3.49-1.43.2-1.75.71l-.46-.29,2.1-3.35.44.27c-.33.54-.7,1,.3,1.64l8.44,5.22-.41.67L17.09,45.82l5.45,3.36c1.15.69,1.54-.18,1.94-.84l.46.3-2.25,3.64-.48-.3c.36-.58.78-1.11-.3-1.81S13.53,45,13.53,45ZM14.79,101a2.22,2.22,0,0,1-2.24-2.23,2.24,2.24,0,1,1,4.47,0A2.21,2.21,0,0,1,14.79,101Zm2-24.82-.51-.07c.07-.75.1-1.26-.87-1.34l-2.52-.25a3,3,0,0,0-1.54.19c-.22.09-3.67,1.77-4.5,2.21a4.11,4.11,0,0,0-1.15.88,2.83,2.83,0,0,0-.27,1l-.51,0,.38-4.3.53.06s0,.26,0,.35l0,.07A.12.12,0,0,0,6,75c.13,0,.37-.09.46-.12.36-.12,4.43-2,4.43-2S7.41,70.53,7.19,70.4a2.09,2.09,0,0,0-.69-.26c-.14,0-.27.07-.27.18s0,.39,0,.39l-.56,0L6,66.86l.54.06s0,.27,0,.42a1.7,1.7,0,0,0,.11.61,1.9,1.9,0,0,0,.63.81A41,41,0,0,0,11.68,72a3.68,3.68,0,0,0,1.41.35s1.38.1,2.48.2,1.13-.69,1.19-1.52l.5,0ZM12.23,65A6,6,0,0,1,8.69,62.1a6.28,6.28,0,0,1-.25-4.89,6.5,6.5,0,0,1,3-3.91,5.48,5.48,0,0,1,4.32-.21,6,6,0,0,1,4,7.9A5.82,5.82,0,0,1,12.23,65Zm13.64,67.59-6.5-7.46c.07-.1,2.31-2,2.31-2,.33-.3.48-.74.33-.91a1.76,1.76,0,0,1,.2-.22c.08.11,1.68,1.94,1.68,1.94l-2,1.7,5.15,5.9Zm2.54-2.43c-.1-.07-1.28-1.45-1.38-1.55.12-.09,2.53-2.23,2.53-2.23s-1.15-1.32-1.74-2A4.06,4.06,0,0,1,24.53,123,3.6,3.6,0,1,1,30,118.34a4.07,4.07,0,0,1,1,3.05l1.94,2.19.35-.32c.33-.29.49-.75.33-.91a1.08,1.08,0,0,1,.23-.19l1.66,1.9C35.34,124.19,28.5,130.14,28.41,130.21Zm17.3,10.59v-.08l-.06.06a10.33,10.33,0,0,1-3.45,1.29h0c0-.09-.44-1.1-.49-1.24a9.9,9.9,0,0,0,5.87-4.66h0c.44-1-.06-1.35-.09-1.4l.11-.24c.11,0,2.6,1.18,2.72,1.24A10.47,10.47,0,0,1,47,139.86l0,0,0,.11a15.82,15.82,0,0,1,1.55,3.71c-.09.08-1.53.86-1.71,1A12,12,0,0,0,45.71,140.8Zm1.78,7.58c.05-.15,3.25-7.09,3.25-7.09l-2-.91c.06-.12.61-1.36.66-1.46l2,.9,1-2.19c.19-.4.17-.84-.06-1,0-.06.09-.16.13-.24s2.08,1,2.08,1h0c-.06.11-5.34,11.62-5.39,11.74S47.61,148.39,47.49,148.38Zm4.32,2c-.11-.06-1.76-.82-1.9-.86.06-.14,5.36-11.62,5.43-11.75.11,0,1.85.86,1.85.86h0C57.16,138.73,51.85,150.23,51.81,150.35Zm33.86,5.19H83.6v-7.79h-.93v7.79c-.14,0-1.83,0-1.93,0V153H73.68V144c0-.44-.22-.85-.47-.85v-.25H79v1.59H75.77v6.84h5v-7.64c0-.43-.23-.87-.48-.87v-.25h2.42v3.54h.93v-3.54h2.08ZM103.38,143a3,3,0,0,1,0-2.59l-1.28.6-.69-1.45,2.8-1.34,0-.06c-.22-.36-.53-.56-.73-.48h0l-.12-.25c.12-.08,2.3-1.12,2.3-1.12s.48,1,.48,1l2.62-1.28c.05.15.61,1.36.66,1.47l-1.38.66a3,3,0,0,1,2,1.61,3.71,3.71,0,0,1-6.63,3.2Zm11.73-2.25c-.13.08-1.78.86-1.88.91,0-.11-2.72-5.66-2.72-5.66-.18-.4-.56-.66-.79-.54,0-.09-.1-.22-.12-.28.12,0,2.19-1,2.3-1.11.06.14,1.57,3.28,1.57,3.28l1.83-.88c.06.09.59,1.2.63,1.32-.13,0-1.84.88-1.84.88S115,140.63,115.11,140.72Zm.5,5.89c0-.14-1.2-2.54-1.2-2.54l-7.81,3.78c-.07-.1-.65-1.36-.71-1.47.14,0,9.56-4.55,9.69-4.64.08.13,1.86,3.87,1.91,4C117.37,145.77,115.75,146.56,115.62,146.61Zm-35.79-8.55A58.2,58.2,0,1,1,138,79.86,58.17,58.17,0,0,1,79.83,138.06Zm54-5.6c-.1-.07-1.15-.94-1.24-1l1.47-1.78-2.62-2.19c-.32-.26-.79-.34-1-.15a2.66,2.66,0,0,0-.22-.18c.09-.11,1.4-1.68,1.47-1.79l3.5,2.9.69-.82-3.52-2.9c.09-.09,1.17-1.4,1.28-1.52.1.07,3.49,2.9,3.49,2.9s.44-.54,1-1.24l-6.74-5.59-5.18,6.26c-.1-.1-1.13-.94-1.25-1,.1-.09,6.52-7.82,6.52-7.82s6.3,5.23,8,6.6l.8-1c.11.08,1.14,1,1.25,1C141.49,123.24,133.92,132.38,133.83,132.46Zm7.81-67.76-.5.12-1.45-4.88.53-.17c.24.9.36,1.25,1.08,1l8.87-2.61c-.46-1.63-.57-2-.63-2.18-.27-1-.84-1-1.63-.83l-.18-.6,2.37-.34,2.77,9.38-2.17,1-.18-.56c.71-.35,1.22-.64.92-1.61-.05-.18-.15-.54-.66-2.17l-8.87,2.62C141.08,63.12,141.43,63.95,141.64,64.7Zm4,36.65A2.28,2.28,0,1,1,148,99.07,2.27,2.27,0,0,1,145.69,101.35Zm8.43-22.92a1.28,1.28,0,0,0-.23-.59,1.81,1.81,0,0,0-.77-.68,41.72,41.72,0,0,0-5-2.36,3.48,3.48,0,0,0-1.47-.09L144.2,75c-1.1.08-.94.87-.87,1.73l-.49,0-.5-5.06.53,0c.06.71.13,1.26,1.11,1.13l2.48-.25a2.81,2.81,0,0,0,1.48-.48c.22-.1,3.27-2.42,4-3a4.14,4.14,0,0,0,.94-1.08,2.27,2.27,0,0,0,.11-1l.52-.07.41,4.3-.52,0a1.65,1.65,0,0,0-.05-.35l0-.06a.13.13,0,0,0-.16-.09,1.26,1.26,0,0,0-.43.2c-.34.19-4,2.81-4,2.81l4.08,1.75a2.46,2.46,0,0,0,.71.12c.15,0,.24-.12.23-.24s0-.37,0-.37l.55-.07.36,3.8-.53.06S154.12,78.57,154.12,78.43Z"/><path class="cls-1" d="M29.79,123.62a1.22,1.22,0,0,1-.31.24l1.31,1.54.86-.76s-.79-.88-1.37-1.55A2.58,2.58,0,0,1,29.79,123.62Z"/><path class="cls-1" d="M15.57,55.45a5.76,5.76,0,0,0-4.42.19,3.75,3.75,0,0,0-1.93,2.27c-.4,1.28-.51,3.61,3.28,4.8,3.05.94,5.74-.1,6.55-2.64a3,3,0,0,0-.18-2.3A5.41,5.41,0,0,0,15.57,55.45Z"/><path class="cls-1" d="M128.2,31.06a1.55,1.55,0,0,0,.88.56,2.54,2.54,0,0,0,2.11-1,2.28,2.28,0,0,0,.29-3.39l-.52-.52-3.53,3.55Z"/><path class="cls-1" d="M79.83,51.89a8.55,8.55,0,1,0,8.55,8.58A8.57,8.57,0,0,0,79.83,51.89Z"/><path class="cls-1" d="M39.14,87.77c.19.87.39,1.76.61,2.63a60.71,60.71,0,0,0,12.68,24.67L79.83,87.63l27.39,27.44a60.3,60.3,0,0,0,12.71-24.67c.23-.87.45-1.76.62-2.63a225.26,225.26,0,0,0-81.41,0Z"/><path class="cls-1" d="M121.89,72.53V44s-24.35.79-42.07-12.84C62.1,44.79,37.79,44,37.79,44V72.53a81.23,81.23,0,0,0,.91,12.83,228.74,228.74,0,0,1,82.29,0A80.33,80.33,0,0,0,121.89,72.53ZM51,59.55a1,1,0,0,1,1-1h3.2a.25.25,0,0,1,.24.23v8.09a.24.24,0,0,1-.24.25H51.28a.23.23,0,0,1-.25-.25ZM45.6,58.8a.25.25,0,0,1,.24-.23H49a1,1,0,0,1,1,1v7.34a.23.23,0,0,1-.23.25H45.84a.24.24,0,0,1-.24-.25Zm11.92,9.91a.26.26,0,0,1-.24.26h-5a2,2,0,0,1-3.56,0h-5a.26.26,0,0,1-.25-.26V60.22a.23.23,0,0,1,.25-.24h.82v8h5v.08a.93.93,0,0,0,1,.86.94.94,0,0,0,.95-.86V68h5V60h.83a.23.23,0,0,1,.24.24Zm22.3,8.45A16.72,16.72,0,1,1,96.54,60.48,16.72,16.72,0,0,1,79.83,77.16Zm29.73-3.83a.59.59,0,0,1-.57.52h-.55a.58.58,0,0,1-.56-.52l-1.06-6.77a.27.27,0,0,1,.28-.31h3.25a.26.26,0,0,1,.27.31Zm2.79-10.07s.41,0,.3.36l-.53,1.59a.41.41,0,0,1-.39.23h-6a.42.42,0,0,1-.4-.23l-.5-1.55c-.18-.44.25-.4.25-.4h1.87a.86.86,0,0,0,0-.86c-1-1.39-3.08-2.36-3.06-3.36,0-1.2,1.76-2.95,1.8-3s.23,0,.2.07c-.68,2.79,3.87,3.23,3.39,5a5.5,5.5,0,0,1-1.18,2.09h1.18c.51-.61,1.34-1.91,1-2.72a2.41,2.41,0,0,0-.66-1c-.61-.59-1.4-1-2-1.52a2.61,2.61,0,0,1-1.16-1.86c0-1.55,3-3.74,3.06-3.8s.26-.1.2,0a4.11,4.11,0,0,0-.46,2.22c.21,1.43,3.84,3.28,4.08,4.58s-1.76,3.33-2.59,4.06Z"/><path class="cls-1" d="M76.13,120.55a1.68,1.68,0,0,0-.84,1.45,1.13,1.13,0,0,0,1.08,1.18,1,1,0,0,0,1-1.13C77.41,121.3,76.81,120.93,76.13,120.55Z"/><path class="cls-1" d="M82.22,119.68a1.15,1.15,0,0,0,.7-1.11.79.79,0,0,0-.81-.88.82.82,0,0,0-.88.86C81.23,118.95,81.5,119.26,82.22,119.68Z"/><path class="cls-1" d="M76.51,119.68a1.13,1.13,0,0,0,.69-1.11.79.79,0,0,0-.79-.88.81.81,0,0,0-.87.86C75.54,118.95,75.78,119.26,76.51,119.68Z"/><path class="cls-1" d="M81.84,120.55A1.69,1.69,0,0,0,81,122a1.13,1.13,0,0,0,1.08,1.18,1,1,0,0,0,1-1.13C83.11,121.3,82.53,120.93,81.84,120.55Z"/><path class="cls-1" d="M79.83,101.13,59.16,121.84a86.5,86.5,0,0,0,20.67,13,86.45,86.45,0,0,0,20.66-13Zm-7,22.54-1,0h-.75l-1,0c-.23,0-.25-.1-.25-.18a.19.19,0,0,1,.17-.2l.63-.06c.18,0,.23-.07.25-.34l0-1.85v-2.38a.56.56,0,0,0,0-.18,3.51,3.51,0,0,0-.65.27l-.26.11-.14,0a.2.2,0,0,1-.18-.21.24.24,0,0,1,.14-.22c.06,0,1.58-1,1.89-1.26l.3-.15s.19.06.19.31v.13l0,2V121l0,1.85c0,.27.06.31.23.34l.53.06a.2.2,0,0,1,.15.2C73.07,123.58,73,123.68,72.83,123.68Zm3.47.14c-1.34,0-2.19-.69-2.19-1.77a2.11,2.11,0,0,1,1.4-1.83,1.81,1.81,0,0,1-1.08-1.52c0-.65.55-1.62,2.08-1.62,1.11,0,1.81.57,1.81,1.41A1.67,1.67,0,0,1,77.24,120a2.24,2.24,0,0,1,1.37,1.85A2.07,2.07,0,0,1,76.3,123.81Zm5.71,0c-1.32,0-2.19-.69-2.19-1.77a2.08,2.08,0,0,1,1.39-1.83,1.77,1.77,0,0,1-1.07-1.52c0-.65.54-1.62,2.07-1.62,1.11,0,1.81.57,1.81,1.41A1.65,1.65,0,0,1,82.94,120a2.29,2.29,0,0,1,1.39,1.85A2.08,2.08,0,0,1,82,123.81Zm4.51,0a2.2,2.2,0,0,1-.83-.17h0c-.19-.1-.19-.26-.19-.43v-1.09s.06-.22.23-.22.17,0,.17.25a.89.89,0,0,0,1,1,1.24,1.24,0,0,0,1.26-1.41c0-1.29-1.43-1.77-2-1.85-.25,0-.25-.2-.25-.31l.18-2.15c0-.08,0-.23.27-.23h2l.53,0,.08,0c.22,0,.22.2.22.28l-.12,1.09a.2.2,0,0,1-.23.18s-.16,0-.16-.24,0-.32-.6-.32H86.71c0,.14-.06.61-.08.78,1.34.27,2.73,1,2.73,2.42A2.55,2.55,0,0,1,86.52,123.81Z"/><g class="cls-2"><path class="cls-1" d="M377.94,32.64V49.86h-4.53V32.64H361.73V34h0c1.18,0,2.28,2,2.28,4.13V75.19H339.92V42h16V34.19h-28.4v1.4h0c1.16,0,2.28,2,2.28,4.1V83H364V95.45h9.39V57.62h4.53V95.45H388V32.64H377.94Z"/><path class="cls-1" d="M525.37,84.52V34.31H475.93v7.83h39.35V84.52h-8V62.44h-9.62V84.52h-5.45V62.44H480.94v1.39h0c1.17,0,2.27,2,2.27,4.1V84.52H472.6v7.85h58.86V84.52Z"/><path class="cls-1" d="M304.61,32.64V95.45h10.08V32.64H304.61Z"/><path class="cls-1" d="M288.75,32.64V34h0c1.15,0,2.28,2,2.28,4.13V49.86H281v7.76h10V95.45h9.44V32.64H288.75Z"/><path class="cls-1" d="M272.25,59.54l-.53-.41.12-.27A51.19,51.19,0,0,0,278,34.19v0H263.4v1.4h0c.13,0,3.19.73,3.19,5.85,0,.32,0,17.35-16.38,32.59l4.65,4.45h0c.08,0,6.14-3.76,12.57-12.71l.22-.29.29.23c2.53,2.08,6.34,5.22,13,14.81.59-.8,5.25-7.3,5.52-7.69C283.55,68.91,278.47,64.22,272.25,59.54Z"/><path class="cls-1" d="M406.06,81.83h42.09V95.4h10.09V74H406.06Z"/><path class="cls-1" d="M458.24,32.57H445.86V34h0c1.18,0,2.28,2,2.28,4.11V68.62h10.09V57.56h9.89V49.82h-9.89Z"/><path class="cls-1" d="M402.26,53.91c0,8.44,8,15.33,17.89,15.33S438,62.35,438,53.91A14.47,14.47,0,0,0,432,42.45h8.15V34.62H426V29.3H413.67v1.37h0c1,0,2,1.65,2.2,3.56l0,.38h-15v7.83h7.45A14.46,14.46,0,0,0,402.26,53.91Zm17.89,8.75c-4.4,0-8-4.14-8-9.24s3.55-9.24,8-9.24,7.95,4.15,7.95,9.24S424.51,62.66,420.15,62.66Z"/><path class="cls-1" d="M203.88,74.6H191.52V76c1.17,0,2.29,2,2.29,4.09V95h48.1V87.14h-38Z"/><path class="cls-1" d="M218,61.63h13V78H241.1V32.62H228.74V34h0c1.16,0,2.28,2,2.28,4.12v2.44H217.15a19.44,19.44,0,0,0-14.63-6.45c-10.4,0-18.87,7.87-18.87,17.55s8.47,17.54,18.87,17.54A19.31,19.31,0,0,0,218,61.63Zm13-13.28V53.8h-9.77a16.59,16.59,0,0,0,.15-2.15,16.29,16.29,0,0,0-.35-3.3Zm-37.29,3.27c0-5.74,3.95-10.39,8.78-10.39s8.8,4.65,8.8,10.39S207.38,62,202.52,62,193.74,57.34,193.74,51.62Z"/><path class="cls-1" d="M218.32,111.55c-7.62,0-11.1,5.47-11.1,10.54s3.39,10.55,10.84,10.55c6.56,0,11.13-4.54,11.13-11C229.19,115.41,225,111.55,218.32,111.55Zm.85,19.3c-4.61,0-7.84-3.93-7.84-9.57,0-6.95,3.91-8,6.23-8,4.4,0,7.46,3.82,7.46,9.3C225,130,220.93,130.84,219.17,130.84Z"/><path class="cls-1" d="M267.06,116.69h-1.14a3.54,3.54,0,0,0-.63-2.26,3.08,3.08,0,0,0-2.68-1.19c-1.75,0-2.89,1-2.89,2.47,0,1,.41,1.86,2.69,3.59l.74.55c3.25,2.53,4.4,4.33,4.4,6.9a5.56,5.56,0,0,1-2.58,4.78,7.78,7.78,0,0,1-4.31,1.12c-1.57,0-3.76-.32-4.56-1.13v-5.06h1s.21,1.51.36,2A3.42,3.42,0,0,0,261,130.9c2.14,0,3.29-1.42,3.29-2.76s-.42-2.42-2.49-4l-1.21-.94c-2.79-2.18-4-4.1-4-6.42,0-3.06,2.56-5.21,6.32-5.21,3.14,0,4.1.77,4.1.77Z"/><path class="cls-1" d="M433.25,116.69h-1.14a3.51,3.51,0,0,0-.63-2.26,3.09,3.09,0,0,0-2.68-1.19c-1.75,0-2.89,1-2.89,2.47,0,1,.42,1.86,2.7,3.59l.74.55c3.25,2.53,4.41,4.33,4.41,6.9a5.57,5.57,0,0,1-2.59,4.78,7.75,7.75,0,0,1-4.31,1.12c-1.57,0-3.75-.32-4.55-1.13v-5.06h1s.21,1.51.36,2a3.42,3.42,0,0,0,3.52,2.49c2.13,0,3.29-1.42,3.29-2.76s-.42-2.42-2.49-4l-1.21-.94c-2.79-2.18-4-4.1-4-6.42,0-3.06,2.56-5.21,6.32-5.21,3.14,0,4.1.77,4.1.77Z"/><path class="cls-1" d="M281.71,113.73c1.8,0,1.87,1,1.87,2.35h.94v-4.16h-13.1v.93H272c.89,0,2,.27,2,1.79v14.62c0,2-.56,2.09-1.79,2.08h-.44v.93h13.37v-4.49h-1c0,2-.79,2.69-2.16,2.69h-4.19v-8.13h3.9c1.35,0,1.38.45,1.38,1.84h.94v-5.49h-.94c0,1.41,0,1.85-1.38,1.85h-3.9v-6.8Z"/><path class="cls-1" d="M396.28,113.73c1.8,0,1.87,1,1.87,2.35h.94v-4.16H386v.93h.61c.9,0,2,.27,2,1.79,0,1.89,0,14.62,0,14.62,0,2-.56,2.09-1.8,2.08h-.43v.93h13.37v-4.49h-1c0,2-.79,2.69-2.16,2.69h-4.19v-8.13h3.91c1.34,0,1.37.45,1.37,1.84h.94v-5.49h-.94c0,1.41,0,1.85-1.37,1.85h-3.91v-6.8Z"/><path class="cls-1" d="M297.79,131.34c-1,0-2-.15-2-1.35V114.23c0-1.31.62-1.38,2.24-1.38v-.93h-8.3v.93h.47c.67,0,1.81.18,1.81,1.38V130c0,1.31-.68,1.34-2.29,1.34v.93h9v-.92Z"/><path class="cls-1" d="M363.67,131.34c-1,0-2-.15-2-1.35V114.23c0-1.31.62-1.38,2.23-1.38v-.93h-8.3v.93h.48c.67,0,1.81.18,1.81,1.38V130c0,1.31-.68,1.34-2.29,1.34v.93h9v-.92Z"/><path class="cls-1" d="M444,131.34c-1,0-1.95-.15-1.95-1.35V114.23c0-1.31.62-1.38,2.23-1.38v-.93H436v.93h.47c.67,0,1.81.18,1.81,1.38V130c0,1.31-.67,1.34-2.28,1.34v.93h9v-.92Z"/><path class="cls-1" d="M194.57,112.85H195v-.93h-7.57v.93a3.92,3.92,0,0,1,1.69.33,6.26,6.26,0,0,1,1.73,1.84c.93,1.39,4.44,7.14,4.61,7.53a5.35,5.35,0,0,1,.58,2.66v4.42c0,1.7-.92,1.7-2.23,1.7v.94h8.91v-.94h-.65c-1.22,0-2.23-.1-2.23-1.76v-4.36a6.18,6.18,0,0,1,.37-2.54,85,85,0,0,1,5-8.3,3.94,3.94,0,0,1,1.34-1.22,2.09,2.09,0,0,1,1.05-.31h.73v-.93h-6.7v.93h.69a.39.39,0,0,1,.4.44,3.17,3.17,0,0,1-.38,1.28c-.18.4-3.74,6.82-3.74,6.82s-3.94-6.82-4.23-7.45a2,2,0,0,1-.29-.79.32.32,0,0,1,.18-.24A.82.82,0,0,1,194.57,112.85Z"/><path class="cls-1" d="M472.54,112.85H473v-.93h-7.56v.93a3.9,3.9,0,0,1,1.69.33,6.34,6.34,0,0,1,1.73,1.84c.94,1.39,4.44,7.14,4.61,7.53a5.37,5.37,0,0,1,.58,2.66v4.42c0,1.7-.93,1.7-2.23,1.7v.94h8.91v-.94H480c-1.22,0-2.23-.1-2.23-1.76v-4.36a6.18,6.18,0,0,1,.37-2.54,84.92,84.92,0,0,1,5-8.3,3.89,3.89,0,0,1,1.34-1.22,2.11,2.11,0,0,1,1.06-.31h.72v-.93h-6.7v.93h.69a.39.39,0,0,1,.4.44,3.23,3.23,0,0,1-.39,1.28c-.18.4-3.74,6.82-3.74,6.82s-3.94-6.82-4.24-7.45a2,2,0,0,1-.29-.79.33.33,0,0,1,.18-.24A.78.78,0,0,1,472.54,112.85Z"/><path class="cls-1" d="M238.38,131.34v.93h-7.52v-.93c1.18,0,2.4.09,2.4-2.16V111.93h1.26c2.38,2.44,13.73,14.17,14.1,14.56V114.84c0-2.07-1.64-2-2.65-2v-.93h6.93v.93c-1.1,0-2.19-.07-2.19,2v17.43h-1.36l-14-14.31v11.21c0,1.95,1.13,2.16,2.27,2.16Z"/><path class="cls-1" d="M338.28,131.34v.93h-7.52v-.93c1.18,0,2.39.09,2.39-2.16V111.93h1.27c2.38,2.44,13.73,14.17,14.1,14.56V114.84c0-2.07-1.64-2-2.66-2v-.93h6.93v.93c-1.11,0-2.19-.07-2.19,2v17.43h-1.35l-14-14.31v11.21c0,1.95,1.14,2.16,2.27,2.16Z"/><path class="cls-1" d="M322.86,112.85c.67,0,1.84.19,1.84,1.41V123c0,2.79-.11,5-1.47,6.4a5,5,0,0,1-3.51,1.37,4.65,4.65,0,0,1-3.17-1c-1-.84-2-2.2-2-6.35v-9.11c0-1.32.63-1.41,2.25-1.41v-.93h-8.3v.93H309c.67,0,1.8.21,1.8,1.41v9.28c0,3.38.76,5.65,2.41,7.13a8.75,8.75,0,0,0,6,1.87,8.08,8.08,0,0,0,5.62-1.94c2.26-1.94,2.57-5,2.57-8.09v-8.25c0-1.31.65-1.41,2.25-1.41v-.93H322.4v.93Z"/><path class="cls-1" d="M450.74,131.34v.93h9v-.93h-.76c-1.1,0-2.13-.1-2.13-1.36V113.75h4c1.81,0,2,1,2.21,2.34h1.08l-.6-4.17H446.35l-.6,4.17h1.08c.19-1.36.41-2.34,2.2-2.34h4V130c0,1.15-.52,1.33-1.76,1.33Z"/><path class="cls-1" d="M422.78,131.3a5.1,5.1,0,0,1-2.84-1.73c-1.34-1.41-2.88-3.35-4.81-5.79,0,0-.61-.78-.79-1,2.37-2,3.41-3.76,3.41-5.94a4.63,4.63,0,0,0-1.87-3.72,9,9,0,0,0-5-1.2h-7.83v.93h.44c.66,0,1.84.19,1.84,1.41V130c0,1.16-.53,1.33-1.8,1.33h-.49v.93h9v-.93h-.87c-1,0-2-.14-2-1.36V124h2.39l2.67,3.75c1.56,2.13,2.55,3.33,3.69,3.94a5.5,5.5,0,0,0,2.92.55h2.7v-.9C423,131.33,422.78,131.3,422.78,131.3Zm-10-9.33a2.5,2.5,0,0,1-1.76.41h-1.87v-8.79h1.28c1.41,0,3.82.93,3.82,4.59C414.22,120.53,413.31,121.56,412.76,122Z"/><path class="cls-1" d="M386.56,112.85v-.93h-6.79v.93h.77a.51.51,0,0,1,.53.39,3.4,3.4,0,0,1-.22,1.35s-4.56,11.66-4.8,12.24c-.2-.5-4.86-12.88-4.86-12.88s-.22-.5-.13-.73a.62.62,0,0,1,.57-.38h.77v-.92h-7.69v.92a3.47,3.47,0,0,1,1.6.35,3.86,3.86,0,0,1,1.21,1.84l7.29,17.45h.85l8-18.1s.72-1.57,2.11-1.55Z"/><path class="cls-1" d="M558.53,72.92A27.39,27.39,0,0,1,553,55.67a27.35,27.35,0,0,1,5.54-17.29q5.54-7.14,13.28-7.14t13.35,7.14a27.35,27.35,0,0,1,5.54,17.29,27.38,27.38,0,0,1-5.54,17.25q-5.54,7.17-13.35,7.17T558.53,72.92Zm7.1-29.5a27,27,0,0,0-2.56,12.25,26.81,26.81,0,0,0,2.56,12.18q2.56,5.08,6.18,5.08T578,67.84a26.51,26.51,0,0,0,2.59-12.18A26.69,26.69,0,0,0,578,43.42q-2.59-5.07-6.21-5.08T565.63,43.42Zm35.71,49.17V35.29a5.94,5.94,0,0,0-.67-2.88A2,2,0,0,0,599,31.17V29.75h12.35V92.59Z"/><path class="cls-1" d="M666.31,72.42v7.81H623V72.42h9.59V56.94a5.12,5.12,0,0,0-.78-2.84q-.78-1.21-1.56-1.21V51.48h12.21V72.42h7.88V39.26H625.91V31.45h34.51v41ZM680.51,55v37.7h-10V35.29a5.94,5.94,0,0,0-.67-2.88,2,2,0,0,0-1.67-1.24V29.75h12.35V47h9.87v8Z"/><path class="cls-1" d="M697.19,80.09V36.85a5.93,5.93,0,0,0-.67-2.88q-.68-1.24-1.6-1.24V31.38h28.33v7.81h-16V72.28H731.2v-37a5.7,5.7,0,0,0-.71-2.88q-.71-1.24-1.56-1.24V29.75h11.64V47h4.54V29.75h10V92.51h-10V54.74h-4.54V92.51H731.2V80.09Z"/><path class="cls-1" d="M765.28,39.62V31.74h15v-.35a5.93,5.93,0,0,0-.78-2.48q-.64-1.07-1.42-1.07H778V26.48h12.35v5.25H804.4v7.88h-8.24a14.92,14.92,0,0,1,4.54,5,13.11,13.11,0,0,1,1.63,6.39,13.71,13.71,0,0,1-5.25,10.79,20,20,0,0,1-25.21,0,13.7,13.7,0,0,1-5.25-10.79,13.09,13.09,0,0,1,1.63-6.39,15.49,15.49,0,0,1,4.4-5Zm57.23,31.45V92.44H812.43V79h-42V71.07ZM778.88,44a10.35,10.35,0,0,0,0,13,7.12,7.12,0,0,0,11.22,0,10.35,10.35,0,0,0,0-13,7.18,7.18,0,0,0-11.22,0Zm43.49-14.27V46.93h9.87v7.74h-9.87V65.75H812.29V35.22a5.94,5.94,0,0,0-.67-2.88q-.68-1.24-1.6-1.24V29.75Z"/><path class="cls-1" d="M509.23,133.23q-6.06,0-9.52-3a10.34,10.34,0,0,1-3.46-8.22,9.84,9.84,0,0,1,3.24-7.61q3.24-3,8.8-3a31,31,0,0,1,4,.28q1,.19,2.78.47.42,0,.42.33,0,.08-.06.47t-.08,1.06q0,1.22-.08,3-.06.64-.33.64t-.28-.61a3.72,3.72,0,0,0-1.08-2.56,5.23,5.23,0,0,0-2.2-1.22,11.41,11.41,0,0,0-3.45-.5,7.47,7.47,0,0,0-5.23,1.72q-2.56,2.34-2.56,7.2a9.79,9.79,0,0,0,3,7.42,8.17,8.17,0,0,0,5.78,2.48,13.06,13.06,0,0,0,2.75-.22,4.21,4.21,0,0,0,2.34-1.33,3.81,3.81,0,0,0,.95-1.84q.11-.56.36-.56t.25.42q0,.31-.19,1.61a17.71,17.71,0,0,1-.4,2.06,1.22,1.22,0,0,1-.74.83A14.35,14.35,0,0,1,509.23,133.23Z"/><path class="cls-1" d="M529.7,133.23a11,11,0,0,1-8.59-18.13q3.14-3.67,8.87-3.67a11.59,11.59,0,0,1,8.2,2.81,9.85,9.85,0,0,1,3,7.59,11,11,0,0,1-11.51,11.4Zm1.17-1.39a5.64,5.64,0,0,0,3.95-1.47q2.5-2.25,2.5-7.51a11.17,11.17,0,0,0-2.36-7.4,7.25,7.25,0,0,0-5.78-2.7,6.24,6.24,0,0,0-4.62,1.75q-2.23,2.23-2.22,7a11.42,11.42,0,0,0,2.28,7.34A7.54,7.54,0,0,0,530.86,131.84Z"/><path class="cls-1" d="M550.77,119.89v4.89q0,3.14.08,4.14a3,3,0,0,0,.5,1.84q.7.61,3.36.61t3.25-.78a2.87,2.87,0,0,0,.72-1.67q.05-.42.31-.42t.22.47a12.12,12.12,0,0,1-.42,3.2.89.89,0,0,1-.67.7,5.79,5.79,0,0,1-1.08.06q-2.23,0-4.7-.08t-3.39-.08l-1.57,0-1.93,0q-.56,0-.56-.28t.61-.25l.83-.08q.64-.14.81-1.53.14-1.08.14-5.92v-4.89q0-5-.06-5.89a1.65,1.65,0,0,0-.61-1.39,3,3,0,0,0-1.5-.28c-.32,0-.47-.08-.47-.25s.2-.25.61-.25l2.11,0,1.7,0,1.74,0,2,0q.58,0,.58.25c0,.17-.17.25-.5.25a6.25,6.25,0,0,0-1.08.08q-.95.17-1,1.59Q550.77,114.94,550.77,119.89Z"/><path class="cls-1" d="M567.6,119.89v4.89q0,3.14.08,4.14a3,3,0,0,0,.5,1.84q.7.61,3.36.61t3.25-.78a2.87,2.87,0,0,0,.72-1.67q.06-.42.31-.42c.15,0,.22.16.22.47a12.09,12.09,0,0,1-.42,3.2.88.88,0,0,1-.67.7,5.79,5.79,0,0,1-1.08.06q-2.23,0-4.7-.08t-3.39-.08l-1.57,0-1.93,0c-.37,0-.56-.09-.56-.28s.2-.21.61-.25l.83-.08q.64-.14.81-1.53.14-1.08.14-5.92v-4.89q0-5-.06-5.89a1.65,1.65,0,0,0-.61-1.39,3,3,0,0,0-1.5-.28c-.31,0-.47-.08-.47-.25s.2-.25.61-.25l2.11,0,1.7,0,1.74,0,2,0q.58,0,.58.25c0,.17-.17.25-.5.25a6.25,6.25,0,0,0-1.08.08q-.95.17-1,1.59Q567.6,114.94,567.6,119.89Z"/><path class="cls-1" d="M580.95,124.78v-4.89q0-5-.06-5.89a1.52,1.52,0,0,0-1.2-1.59,5.43,5.43,0,0,0-1.08-.08c-.32,0-.47-.08-.47-.25s.2-.25.61-.25,1.31,0,2.27,0l1.74,0q6.59,0,7,0a8.06,8.06,0,0,0,1.2-.17l.44-.11c.11,0,.17.08.17.25s0,.19-.08.5-.1.81-.12,1.31-.08,1.11-.15,1.84c0,.2-.13.31-.28.31s-.21-.1-.24-.31-.05-.4-.07-.58a2,2,0,0,0-.11-.5q-.33-.81-1.86-1-.95-.11-3.95-.11c-.13,0-.2.09-.2.28v7c0,.2.07.31.2.31q3.78,0,4.45-.06a4.77,4.77,0,0,0,.72-.08,1.2,1.2,0,0,0,.61-.33c.22-.24.37-.36.44-.36s.19.07.19.22,0,.2-.08.56-.1.92-.14,1.47q-.11,1.58-.11,1.86c0,.35-.08.53-.25.53s-.25-.1-.25-.29a6.73,6.73,0,0,0-.11-1q-.22-.94-1.56-1.08-.78-.08-3.95-.08c-.11,0-.17.09-.17.28v6.51a2.4,2.4,0,0,0,.65,1.9,5.3,5.3,0,0,0,2.68.43,7,7,0,0,0,2.61-.33,2.53,2.53,0,0,0,1.25-2.06c.06-.28.16-.42.31-.42s.22.17.22.5a12.27,12.27,0,0,1-.36,3.09.88.88,0,0,1-.39.61,3.41,3.41,0,0,1-1.11.11q-2.42,0-4.81-.08l-2.89-.08-1.57,0-1.93,0q-.56,0-.56-.28t.61-.25l.83-.08q.64-.14.81-1.53Q580.94,129.62,580.95,124.78Z"/><path class="cls-1" d="M615.4,127.92V131q0,.81-.36,1a17.55,17.55,0,0,1-15.68-1.33,9.75,9.75,0,0,1-3.87-8.31,10.91,10.91,0,0,1,1.47-5.65,9.53,9.53,0,0,1,3.36-3.45,14.28,14.28,0,0,1,7.48-1.81,25.74,25.74,0,0,1,4.92.44,18,18,0,0,0,2.2.31c.26,0,.39.13.39.33a6.08,6.08,0,0,0-.1,1.08q-.1,1.33-.1,3.48,0,.58-.31.58t-.28-.36a4.07,4.07,0,0,0-.95-2.31,6.32,6.32,0,0,0-2.22-1.42,10.4,10.4,0,0,0-4-.75,8.3,8.3,0,0,0-5.51,1.72q-2.56,2.14-2.56,6.81a10.76,10.76,0,0,0,2.67,7.51,9,9,0,0,0,7,2.95q2.31,0,2.7-.58a1.22,1.22,0,0,0,.19-.75v-2.61q0-2.39,0-3.28a1.45,1.45,0,0,0-1.2-1.59,5.5,5.5,0,0,0-1.08-.08q-.42,0-.42-.22c0-.19.19-.28.58-.28l2.25,0,1.78,0,1.6,0,1.65,0c.37,0,.56.09.56.28s-.11.22-.32.22a4.74,4.74,0,0,0-.79.08q-1,.2-1.06,1.59Q615.4,125.5,615.4,127.92Z"/><path class="cls-1" d="M623.16,124.78v-4.89q0-5-.06-5.89a1.52,1.52,0,0,0-1.2-1.59,5.43,5.43,0,0,0-1.08-.08c-.32,0-.47-.08-.47-.25s.2-.25.61-.25,1.31,0,2.27,0l1.74,0q6.59,0,7,0a8.06,8.06,0,0,0,1.2-.17l.44-.11c.11,0,.17.08.17.25s0,.19-.08.5-.1.81-.12,1.31-.08,1.11-.15,1.84c0,.2-.13.31-.28.31s-.21-.1-.24-.31-.05-.4-.07-.58a2,2,0,0,0-.11-.5q-.33-.81-1.86-1-.95-.11-3.95-.11c-.13,0-.2.09-.2.28v7c0,.2.07.31.2.31q3.78,0,4.45-.06a4.77,4.77,0,0,0,.72-.08,1.2,1.2,0,0,0,.61-.33c.22-.24.37-.36.44-.36s.19.07.19.22,0,.2-.08.56-.1.92-.14,1.47q-.11,1.58-.11,1.86c0,.35-.08.53-.25.53s-.25-.1-.25-.29a6.73,6.73,0,0,0-.11-1q-.22-.94-1.56-1.08-.78-.08-3.95-.08c-.11,0-.17.09-.17.28v6.51a2.4,2.4,0,0,0,.65,1.9,5.3,5.3,0,0,0,2.68.43,7,7,0,0,0,2.61-.33,2.53,2.53,0,0,0,1.25-2.06c.06-.28.16-.42.31-.42s.22.17.22.5a12.27,12.27,0,0,1-.36,3.09.88.88,0,0,1-.39.61,3.41,3.41,0,0,1-1.11.11q-2.42,0-4.81-.08l-2.89-.08-1.57,0-1.93,0q-.56,0-.56-.28t.61-.25l.83-.08q.64-.14.81-1.53Q623.16,129.62,623.16,124.78Z"/><path class="cls-1" d="M655.93,133.23a11,11,0,0,1-8.59-18.13q3.14-3.67,8.87-3.67a11.59,11.59,0,0,1,8.2,2.81,9.84,9.84,0,0,1,3,7.59,11,11,0,0,1-11.51,11.4Zm1.17-1.39a5.64,5.64,0,0,0,3.95-1.47q2.5-2.25,2.5-7.51a11.18,11.18,0,0,0-2.36-7.4,7.25,7.25,0,0,0-5.78-2.7,6.24,6.24,0,0,0-4.62,1.75q-2.23,2.23-2.22,7a11.42,11.42,0,0,0,2.28,7.34A7.54,7.54,0,0,0,657.1,131.84Z"/><path class="cls-1" d="M677,122.53v2.25q0,4.7.14,5.92.17,1.39,1.08,1.53a10.28,10.28,0,0,0,1.39.11q.47,0,.47.22t-.61.28q-1,0-2.5,0l-1.72,0-1.63,0-1.91,0q-.58,0-.58-.28t.61-.25q.39-.06.81-.08.64-.14.81-1.53.14-1.08.14-5.92v-4.89q0-5-.06-5.89a1.52,1.52,0,0,0-1.2-1.59,5.44,5.44,0,0,0-1.08-.08c-.32,0-.47-.07-.47-.22s.21-.28.64-.28,1.28,0,2.24,0l1.77,0q6.76,0,7.34,0a7.44,7.44,0,0,0,1.14-.11q.53-.17.44-.17c.13,0,.2.08.2.25a2.48,2.48,0,0,1-.08.42c-.06.28-.1.56-.14.83q-.06.95-.14,2.25-.06.39-.28.39c-.17,0-.26-.15-.28-.44a2.62,2.62,0,0,0-.17-1.06q-.36-.81-1.84-.84l-4.28-.08q-.25,0-.25.39v7c0,.17.06.25.19.25l3.56,0q1.17,0,1.31,0a1.6,1.6,0,0,0,1.14-.5q.22-.28.36-.28c.11,0,.17.08.17.25s0,.24-.08.61-.1.8-.14,1.11q-.11,1.14-.11,2c0,.35-.09.53-.28.53s-.19-.18-.25-.53-.1-.48-.14-.72a1.55,1.55,0,0,0-1.42-1q-.67-.08-4.12-.08C677.1,122.28,677,122.36,677,122.53Z"/><path class="cls-1" d="M703.17,133.23a10.07,10.07,0,0,1-4.06-.72.91.91,0,0,1-.53-.95q0-1.5.14-3.64c0-.48.15-.72.33-.72s.28.16.28.47a5.08,5.08,0,0,0,.25,1.42,3.72,3.72,0,0,0,4,2.81,3.86,3.86,0,0,0,2.81-1,2.93,2.93,0,0,0,.92-2.14q0-2.31-2.72-4.45l-1.28-1q-4.12-3.23-4.12-6.59a4.69,4.69,0,0,1,1.78-3.78,7,7,0,0,1,4.64-1.47,15.24,15.24,0,0,1,3.7.47q.39.11.39.33s0,.29-.06,1-.06,1.48-.06,2.35q0,.84-.31.83t-.28-.5a2.89,2.89,0,0,0-.72-1.84,3.66,3.66,0,0,0-3-1.36,3.51,3.51,0,0,0-2.42.79,2.64,2.64,0,0,0-.89,2.07,3.13,3.13,0,0,0,.63,1.85,11.33,11.33,0,0,0,2.32,2.16l.78.58a14.77,14.77,0,0,1,3.53,3.49,6.52,6.52,0,0,1,1,3.6,5.44,5.44,0,0,1-2.61,4.84A8,8,0,0,1,703.17,133.23Z"/><path class="cls-1" d="M726.78,133.23q-6.06,0-9.52-3a10.34,10.34,0,0,1-3.46-8.22,9.84,9.84,0,0,1,3.24-7.61q3.24-3,8.8-3a31,31,0,0,1,4,.28q1,.19,2.78.47.42,0,.42.33,0,.08-.06.47t-.08,1.06q0,1.22-.08,3c0,.43-.15.64-.33.64s-.28-.2-.28-.61a3.72,3.72,0,0,0-1.08-2.56,5.23,5.23,0,0,0-2.2-1.22,11.4,11.4,0,0,0-3.45-.5,7.47,7.47,0,0,0-5.23,1.72q-2.56,2.34-2.56,7.2a9.79,9.79,0,0,0,3,7.42,8.17,8.17,0,0,0,5.78,2.48,13.06,13.06,0,0,0,2.75-.22,4.2,4.2,0,0,0,2.34-1.33,3.81,3.81,0,0,0,.95-1.84c.07-.37.2-.56.36-.56s.25.14.25.42-.07.74-.19,1.61a17.71,17.71,0,0,1-.4,2.06,1.22,1.22,0,0,1-.74.83A14.35,14.35,0,0,1,726.78,133.23Z"/><path class="cls-1" d="M739.07,124.78v-4.89q0-5-.06-5.89-.08-1.34-.95-1.56a4.16,4.16,0,0,0-1-.11c-.3,0-.44-.09-.44-.28s.22-.22.67-.22l1.91,0,1.71,0,1.56,0,1.84,0c.39,0,.58.07.58.22s-.13.28-.4.28a5,5,0,0,0-.88.08q-.95.17-1,1.59-.06.95-.06,5.89v4.89q0,5,.11,6.09t1.11,1.36a10.46,10.46,0,0,0,1.42.11q.45,0,.45.22t-.53.28q-1.06,0-2.57,0l-1.77,0-1.57,0-1.93,0c-.37,0-.56-.09-.56-.28s.2-.21.61-.25l.83-.08q.67-.14.81-1.38T739.07,124.78Z"/><path class="cls-1" d="M751.64,124.78v-4.89q0-5-.06-5.89a1.52,1.52,0,0,0-1.2-1.59,5.44,5.44,0,0,0-1.08-.08c-.32,0-.47-.08-.47-.25s.2-.25.61-.25,1.31,0,2.27,0l1.74,0q6.59,0,7,0a8,8,0,0,0,1.2-.17l.44-.11c.11,0,.17.08.17.25s0,.19-.08.5-.1.81-.13,1.31-.08,1.11-.15,1.84q-.06.31-.28.31c-.13,0-.21-.1-.24-.31s-.05-.4-.07-.58a2,2,0,0,0-.11-.5q-.33-.81-1.86-1-.95-.11-3.95-.11c-.13,0-.19.09-.19.28v7c0,.2.06.31.19.31q3.78,0,4.45-.06a4.75,4.75,0,0,0,.72-.08,1.2,1.2,0,0,0,.61-.33q.33-.36.44-.36c.13,0,.2.07.2.22s0,.2-.08.56-.1.92-.14,1.47q-.11,1.58-.11,1.86c0,.35-.08.53-.25.53s-.25-.1-.25-.29a6.73,6.73,0,0,0-.11-1q-.22-.94-1.56-1.08-.78-.08-3.95-.08c-.11,0-.17.09-.17.28v6.51a2.4,2.4,0,0,0,.65,1.9,5.3,5.3,0,0,0,2.68.43,7,7,0,0,0,2.61-.33,2.53,2.53,0,0,0,1.25-2.06c.06-.28.16-.42.31-.42s.22.17.22.5a12.27,12.27,0,0,1-.36,3.09.88.88,0,0,1-.39.61,3.42,3.42,0,0,1-1.11.11q-2.42,0-4.81-.08l-2.89-.08-1.57,0-1.93,0c-.37,0-.56-.09-.56-.28s.2-.21.61-.25l.83-.08q.64-.14.81-1.53Q751.64,129.62,751.64,124.78Z"/><path class="cls-1" d="M770.47,117.38l.31,11.68q.08,2.78,1,3.09.08,0,1.08.14.83.11.83.28t-.64.28q-1.06,0-2.2,0l-1.25,0-1.06,0q-1.08,0-1.95,0-.61,0-.61-.28t.72-.25l1-.11a1.09,1.09,0,0,0,.7-.89,15.93,15.93,0,0,0,.17-2.56l.25-16.46c0-.63.14-.95.36-.95s.49.29,1,.86q2.28,2.45,8.62,8.93l6.12,6.34H785L784.76,115a9.1,9.1,0,0,0-.11-1.42,1.49,1.49,0,0,0-.83-1.08,4.47,4.47,0,0,0-1.47-.17c-.3,0-.44-.08-.44-.25s.24-.25.72-.25,1.22,0,2,0l1.36,0,1,0q.94,0,1.75,0,.64,0,.64.25c0,.17-.17.25-.5.25q-1.39,0-1.7.92a6.85,6.85,0,0,0-.17,1.53l-.31,17.55q0,.86-.36.86t-.95-.61q-2.67-2.64-8.2-8.18-1.89-1.86-4.26-4.42l-2.36-2.59Z"/><path class="cls-1" d="M805.5,133.23q-6.06,0-9.52-3a10.34,10.34,0,0,1-3.46-8.22,9.84,9.84,0,0,1,3.24-7.61q3.24-3,8.8-3a31,31,0,0,1,4,.28q1,.19,2.78.47c.28,0,.42.13.42.33s0,.21-.06.47-.07.69-.08,1.06q0,1.22-.08,3-.06.64-.33.64t-.28-.61a3.72,3.72,0,0,0-1.08-2.56,5.23,5.23,0,0,0-2.2-1.22,11.4,11.4,0,0,0-3.45-.5,7.47,7.47,0,0,0-5.23,1.72q-2.56,2.34-2.56,7.2a9.79,9.79,0,0,0,3,7.42,8.17,8.17,0,0,0,5.78,2.48,13,13,0,0,0,2.75-.22,4.2,4.2,0,0,0,2.34-1.33,3.81,3.81,0,0,0,.95-1.84q.11-.56.36-.56t.25.42q0,.31-.19,1.61a17.66,17.66,0,0,1-.4,2.06,1.21,1.21,0,0,1-.74.83A14.35,14.35,0,0,1,805.5,133.23Z"/><path class="cls-1" d="M817.79,124.78v-4.89q0-5-.06-5.89a1.52,1.52,0,0,0-1.2-1.59,5.43,5.43,0,0,0-1.08-.08c-.31,0-.47-.08-.47-.25s.2-.25.61-.25,1.31,0,2.27,0l1.74,0q6.59,0,7,0a8,8,0,0,0,1.2-.17l.44-.11c.11,0,.17.08.17.25s0,.19-.08.5-.1.81-.12,1.31-.08,1.11-.15,1.84q-.06.31-.28.31t-.24-.31c0-.2-.05-.4-.07-.58a2,2,0,0,0-.11-.5q-.33-.81-1.86-1-.95-.11-3.95-.11c-.13,0-.19.09-.19.28v7c0,.2.06.31.19.31q3.78,0,4.45-.06a4.77,4.77,0,0,0,.72-.08,1.2,1.2,0,0,0,.61-.33q.33-.36.44-.36c.13,0,.2.07.2.22s0,.2-.08.56-.1.92-.14,1.47q-.11,1.58-.11,1.86c0,.35-.08.53-.25.53s-.25-.1-.25-.29a6.73,6.73,0,0,0-.11-1q-.22-.94-1.56-1.08-.78-.08-3.95-.08c-.11,0-.17.09-.17.28v6.51A2.4,2.4,0,0,0,822,131a5.3,5.3,0,0,0,2.68.43,7,7,0,0,0,2.61-.33A2.53,2.53,0,0,0,828.5,129c.06-.28.16-.42.31-.42s.22.17.22.5a12.27,12.27,0,0,1-.36,3.09.88.88,0,0,1-.39.61,3.41,3.41,0,0,1-1.11.11q-2.42,0-4.81-.08l-2.89-.08-1.57,0-1.93,0q-.56,0-.56-.28t.61-.25l.83-.08q.64-.14.81-1.53Q817.79,129.62,817.79,124.78Z"/></g></svg>