<svg xmlns="http://www.w3.org/2000/svg" xmlns:xlink="http://www.w3.org/1999/xlink" width="335.747" height="44.036" viewBox="0 0 335.747 44.036">
  <defs>
    <clipPath id="clip-path">
      <rect id="사각형_23463" data-name="사각형 23463" width="335.747" height="44.036" fill="#fff"/>
    </clipPath>
  </defs>
  <g id="그룹_60497" data-name="그룹 60497" transform="translate(-260 -4246)">
    <path id="패스_42757" data-name="패스 42757" d="M13.006.409V30.4h5.961v-16h6.385V10.653H18.967V.409Z" transform="translate(275.721 4246.494)" fill="#fff"/>
    <path id="패스_42758" data-name="패스 42758" d="M75.477,11.281v3.744h17V29.448h5.955V15.025h17.007V11.281Z" transform="translate(351.232 4259.636)" fill="#fff"/>
    <g id="그룹_56005" data-name="그룹 56005" transform="translate(260 4246)">
      <g id="그룹_56004" data-name="그룹 56004" clip-path="url(#clip-path)">
        <path id="패스_42759" data-name="패스 42759" d="M24.093,4.155h-8.76V0H9.374V4.155H0V7.9H6.059l-.473.331A9.1,9.1,0,0,0,1.458,15.58c0,5.087,4.956,9.54,10.613,9.54s10.615-4.453,10.615-9.54a9.07,9.07,0,0,0-4.08-7.353L18.132,7.9h5.961ZM12.071,21.378c-2.84,0-5.332-2.7-5.332-5.78a5.7,5.7,0,0,1,5.332-5.745A5.622,5.622,0,0,1,17.394,15.6c0,3.079-2.485,5.78-5.323,5.78" transform="translate(0 -0.001)" fill="#fff"/>
        <path id="패스_42760" data-name="패스 42760" d="M129.651,11.474c-6.692,0-11.965,4.345-11.965,9.31,0,5,5.272,9.385,11.965,9.385,6.708,0,11.98-4.389,11.98-9.385,0-5.047-5.157-9.31-11.98-9.31m0,15.09c-3.355,0-6.31-2.695-6.31-5.765,0-3.05,2.955-5.718,6.31-5.718,3.437,0,6.326,2.622,6.326,5.718,0,3.07-2.96,5.765-6.326,5.765" transform="translate(142.252 13.868)" fill="#fff"/>
        <rect id="사각형_23462" data-name="사각형 23462" width="5.95" height="42.191" transform="translate(155.99 0.892)" fill="#fff"/>
        <path id="패스_42761" data-name="패스 42761" d="M152.376.405V13.24h6.4v3.79h-6.4V42.6H146.41V.405Z" transform="translate(176.973 0.489)" fill="#fff"/>
        <path id="패스_42762" data-name="패스 42762" d="M9.14,13.138v9.926H31.607v3.75H7.583c-3.123,0-4.391-1.124-4.391-3.872v-9.8Z" transform="translate(3.858 15.879)" fill="#fff"/>
        <path id="패스_42763" data-name="패스 42763" d="M44.841,16.544C45.9,15.195,46.77,13.331,46.77,10V4.465H23.538V.723H48.327c3.128,0,4.417,1.131,4.417,3.87V9.434c0,3.572-1.08,5.471-2.9,7.11h7.479v3.739H41.08v6.991h7.143c3.132,0,4.413,1.118,4.413,3.872V42.212h-5.97V31.018H23.375V27.274H35.134V20.284H19.189V16.544Z" transform="translate(23.195 0.873)" fill="#fff"/>
        <path id="패스_42764" data-name="패스 42764" d="M145.58,18.675H154v3.739H114.07V18.675h14.606V11.547h5.948v7.128h6.032a11.046,11.046,0,0,0,2.118-6.816V4.452H119.121V.7h25.211c3.112,0,4.391,1.124,4.391,3.87V11.3a9.233,9.233,0,0,1-3.143,7.379" transform="translate(137.881 0.847)" fill="#fff"/>
        <path id="패스_42765" data-name="패스 42765" d="M124.007,12.746c3.125,0,4.4,1.126,4.4,3.87V27.679h-5.953V16.488H98.1V12.746Z" transform="translate(118.575 15.406)" fill="#fff"/>
        <path id="패스_42766" data-name="패스 42766" d="M43.2,21.529V5.014c0-2.743,1.272-3.865,4.4-3.865H72.64V4.891H49.15v6.421H71.441V15.06H49.15v6.6H73.217V25.4H60.74v7.815H77.754v3.739H37.835V33.216H54.778V25.4H47.591c-3.123,0-4.4-1.129-4.4-3.872" transform="translate(45.733 1.388)" fill="#fff"/>
        <path id="패스_42767" data-name="패스 42767" d="M131.477.405v23.7h-5.59V12.564h-3.819V24.107h-5.595V20.151l-.322.358c-.733.8-4.265,2-7.949,2H101.42l-1.469-.015c-3.121,0-4.4-1.109-4.4-3.854V5.167c0-2.745,1.277-3.87,4.4-3.87h12.137v3.8H101.414v4.78h9.871v3.748h-9.871V18.76h8.541a13.128,13.128,0,0,0,6.423-1.467l.095-.053V.405h5.595V9.377h3.819V.405Z" transform="translate(115.5 0.488)" fill="#fff"/>
        <path id="패스_42768" data-name="패스 42768" d="M70.251,19.54c-1.46,3.514-4.621,7.532-11.143,10.147-.133-.17-2.127-2.624-2.39-2.94,4.442-2.1,10.509-6.832,10.509-17.007V4.832H58.885V1.1h22.73V4.832H73.277V9.739c0,10.176,6.065,14.9,10.5,17.007-.258.316-2.262,2.77-2.39,2.94-6.511-2.615-9.681-6.633-11.141-10.147" transform="translate(68.557 1.33)" fill="#fff"/>
        <path id="패스_42769" data-name="패스 42769" d="M94.009,12.481s-2.611,6.01-15.461,8.08L76.67,17.3C83.4,16.04,91.016,11.927,91.016,4.976V4.539H78.488V.744h31.051V4.539H97.015v.437c0,6.951,7.62,11.064,14.337,12.327l-1.864,3.258c-12.857-2.07-15.479-8.08-15.479-8.08" transform="translate(92.674 0.898)" fill="#fff"/>
        <path id="패스_42770" data-name="패스 42770" d="M149.409,10.306c0,10.185,5.566,14.527,10.5,16.585-.258.318-2.253,2.77-2.394,2.942-5.449-1.5-10.171-6.092-11.137-9.46-.965,3.368-5.67,7.963-11.134,9.46-.139-.172-2.125-2.624-2.392-2.942,4.932-2.059,10.507-6.4,10.507-16.585V.85h6.052Z" transform="translate(160.581 1.026)" fill="#fff"/>
      </g>
    </g>
  </g>
</svg>
